<?xml version="1.0" encoding="UTF-8" standalone="no"?>
<!-- Created with Inkscape (http://www.inkscape.org/) -->

<svg
   width="16.933334mm"
   height="16.933334mm"
   viewBox="0 0 16.933334 16.933334"
   version="1.1"
   id="svg5"
   inkscape:version="1.1.1 (3bf5ae0d25, 2021-09-20)"
   sodipodi:docname="grass.svg"
   inkscape:export-filename="C:\Users\filo\Projets\csc207\course-project-internet-explorers\src\main\resources\tiles\grass.png"
   inkscape:export-xdpi="95.999992"
   inkscape:export-ydpi="95.999992"
   xmlns:inkscape="http://www.inkscape.org/namespaces/inkscape"
   xmlns:sodipodi="http://sodipodi.sourceforge.net/DTD/sodipodi-0.dtd"
   xmlns="http://www.w3.org/2000/svg"
   xmlns:svg="http://www.w3.org/2000/svg">
  <sodipodi:namedview
     id="namedview7"
     pagecolor="#505050"
     bordercolor="#ffffff"
     borderopacity="1"
     inkscape:pageshadow="0"
     inkscape:pageopacity="0"
     inkscape:pagecheckerboard="1"
     inkscape:document-units="mm"
     showgrid="false"
     inkscape:zoom="10.24"
     inkscape:cx="20.166016"
     inkscape:cy="31.201172"
     inkscape:window-width="1920"
     inkscape:window-height="1013"
     inkscape:window-x="-9"
     inkscape:window-y="-9"
     inkscape:window-maximized="1"
     inkscape:current-layer="layer1" />
  <defs
     id="defs2" />
  <g
     inkscape:label="background"
     inkscape:groupmode="layer"
     id="layer1"
     transform="translate(-12.61529,-107.04975)"
     style="display:inline">
    <rect
       style="fill:#58a734;fill-opacity:1;stroke:#005b00;stroke-width:0;stroke-opacity:0.00271738"
       id="rect139"
       width="16.933332"
       height="16.933332"
       x="12.615291"
       y="107.04975"
       inkscape:label="rect139" />
  </g>
  <g
     inkscape:groupmode="layer"
     id="layer2"
     inkscape:label="grass">
    <path
       style="fill:#67ae00;fill-opacity:1;stroke:#1b8800;stroke-width:0.264583px;stroke-linecap:butt;stroke-linejoin:miter;stroke-opacity:1"
       d="m 1.7813162,1.162721 c 0.246568,-0.0206 0.365408,-0.25215999 0.365408,-0.51156999"
       id="path3201" />
    <path
       style="fill:#67ae00;fill-opacity:1;stroke:#1b8800;stroke-width:0.264583px;stroke-linecap:butt;stroke-linejoin:miter;stroke-opacity:1"
       d="m 5.5450142,1.783911 c 0.05311,-0.60488 0.103802,-1.27463999 0.255785,-1.86357997 0.02195,-0.085 0.09744,-0.14616 0.146163,-0.21924"
       id="path3199" />
    <path
       style="fill:#67ae00;fill-opacity:1;stroke:#1b8800;stroke-width:0.264583px;stroke-linecap:butt;stroke-linejoin:miter;stroke-opacity:1"
       d="m 14.716745,11.247971 c 0.260991,-1.1931 0.255785,-0.77032 0.255785,-1.24239"
       id="path3197" />
    <path
       style="fill:#67ae00;fill-opacity:1;stroke:#1b8800;stroke-width:0.264583px;stroke-linecap:butt;stroke-linejoin:miter;stroke-opacity:1"
       d="m 14.680204,16.765621 c -0.186052,0.21117 -0.140429,0.50297 -0.292326,0.73082"
       id="path3195" />
    <path
       style="fill:#67ae00;fill-opacity:1;stroke:#1b8800;stroke-width:0.264583px;stroke-linecap:butt;stroke-linejoin:miter;stroke-opacity:1"
       d="m 16.214916,12.124951 c 0.06742,-0.30206 0.168373,-0.59366 0.292326,-0.87698 0.115069,-0.26302 0.109622,-0.13264 0.109622,-0.25579"
       id="path3193" />
    <path
       style="fill:#67ae00;fill-opacity:1;stroke:#1b8800;stroke-width:0.264583px;stroke-linecap:butt;stroke-linejoin:miter;stroke-opacity:1"
       d="m 15.886049,9.165141 c 0.24104,-0.30896 0.803896,-0.6277 0.803896,-1.05968"
       id="path3191" />
    <path
       style="fill:#67ae00;fill-opacity:1;stroke:#1b8800;stroke-width:0.264583px;stroke-linecap:butt;stroke-linejoin:miter;stroke-opacity:1"
       d="m 15.95913,6.826541 c 0.574017,-0.13372 0.477847,-0.8798 0.840438,-1.24239"
       id="path3189" />
    <path
       style="fill:#67ae00;fill-opacity:1;stroke:#1b8800;stroke-width:0.264583px;stroke-linecap:butt;stroke-linejoin:miter;stroke-opacity:1"
       d="m 15.337938,3.245541 c 0.252224,-0.0702 0.401102,-0.2184 0.584652,-0.40195"
       id="path3187" />
    <path
       style="fill:#67ae00;fill-opacity:1;stroke:#1b8800;stroke-width:0.264583px;stroke-linecap:butt;stroke-linejoin:miter;stroke-opacity:1"
       d="M 15.703345,0.87039101 15.301397,1.820451"
       id="path3185" />
    <path
       style="fill:#67ae00;fill-opacity:1;stroke:#1b8800;stroke-width:0.264583px;stroke-linecap:butt;stroke-linejoin:miter;stroke-opacity:1"
       d="m 14.059011,0.79731101 c 0.466696,-0.79337998 0.218936,-0.43078 0.730815,-1.09621998"
       id="path3183" />
    <path
       style="fill:#67ae00;fill-opacity:1;stroke:#1b8800;stroke-width:0.264583px;stroke-linecap:butt;stroke-linejoin:miter;stroke-opacity:1"
       d="m 11.756943,1.455041 c 0.120881,-0.1299 0.516594,-0.80388999 0.621193,-0.80388999"
       id="path3181" />
    <path
       style="fill:#67ae00;fill-opacity:1;stroke:#1b8800;stroke-width:0.264583px;stroke-linecap:butt;stroke-linejoin:miter;stroke-opacity:1"
       d="M 3.4987322,0.87039101 C 3.2022912,1.056281 3.3525692,1.022631 3.3525692,1.345421"
       id="path3179" />
    <path
       style="fill:#67ae00;fill-opacity:1;stroke:#1b8800;stroke-width:0.264583px;stroke-linecap:butt;stroke-linejoin:miter;stroke-opacity:1"
       d="m 0.39276821,2.185861 c 0.0766,-0.38515 0.339908,-0.67982 0.51157,-1.02314"
       id="path3177" />
    <path
       style="fill:#67ae00;fill-opacity:1;stroke:#1b8800;stroke-width:0.264583px;stroke-linecap:butt;stroke-linejoin:miter;stroke-opacity:1"
       d="m 0.28314521,6.643831 c 0.07369,-0.46583 0.12599,-0.93426 0.255786,-1.38855"
       id="path3175" />
    <path
       style="fill:#67ae00;fill-opacity:1;stroke:#1b8800;stroke-width:0.264583px;stroke-linecap:butt;stroke-linejoin:miter;stroke-opacity:1"
       d="m 2.0371022,9.018981 c 0,-0.27038 -0.0137,-0.32302 0.109622,-0.65773 0.152919,-0.41507 0.146163,-0.10566 0.146163,-0.25579"
       id="path3173" />
    <path
       style="fill:#67ae00;fill-opacity:1;stroke:#1b8800;stroke-width:0.264583px;stroke-linecap:butt;stroke-linejoin:miter;stroke-opacity:1"
       d="m 1.8543982,15.084751 c 0.06954,-0.31234 0.148389,-0.62565 0.292326,-0.91352"
       id="path3171" />
    <path
       style="fill:#67ae00;fill-opacity:1;stroke:#1b8800;stroke-width:0.264583px;stroke-linecap:butt;stroke-linejoin:miter;stroke-opacity:1"
       d="m 2.0736422,13.367331 c -0.04148,-0.8494 0.212758,-0.92554 0.913519,-1.20584"
       id="path3169" />
    <path
       style="fill:#67ae00;fill-opacity:1;stroke:#1b8800;stroke-width:0.264583px;stroke-linecap:butt;stroke-linejoin:miter;stroke-opacity:1"
       d="m 0.61201221,16.509841 c 0.06049,-0.45868 0.119683,-0.9264 0.182704,-1.38855 0.0052,-0.0382 0.05448,-0.0755 0.03654,-0.10962 -0.110148,-0.20929 -0.267966,-0.38978 -0.401949,-0.58466"
       id="path3167" />
    <path
       style="fill:#67ae00;fill-opacity:1;stroke:#1b8800;stroke-width:0.264583px;stroke-linecap:butt;stroke-linejoin:miter;stroke-opacity:1"
       d="m 2.6217542,16.290591 c -0.02289,-0.22863 0.255785,-0.42975 0.255785,-0.65773"
       id="path3165" />
    <path
       style="fill:#67ae00;fill-opacity:1;stroke:#1b8800;stroke-width:0.264583px;stroke-linecap:butt;stroke-linejoin:miter;stroke-opacity:1"
       d="m 4.9238212,16.765621 c 0.16456,-0.22908 0.225407,-0.5087 0.328867,-0.76735"
       id="path3163" />
    <path
       style="fill:#67ae00;fill-opacity:1;stroke:#1b8800;stroke-width:0.264583px;stroke-linecap:butt;stroke-linejoin:miter;stroke-opacity:1"
       d="m 7.8105412,16.619461 c 0.126511,-0.3825 0.252199,-0.7315 0.292326,-1.13277"
       id="path3161" />
    <path
       style="fill:#67ae00;fill-opacity:1;stroke:#1b8800;stroke-width:0.264583px;stroke-linecap:butt;stroke-linejoin:miter;stroke-opacity:1"
       d="m 11.135751,17.131031 c 0.175497,-0.52649 0.08547,-0.29688 0.255785,-0.69428"
       id="path3159" />
    <path
       style="fill:#67ae00;fill-opacity:1;stroke:#1b8800;stroke-width:0.264583px;stroke-linecap:butt;stroke-linejoin:miter;stroke-opacity:1"
       d="m 15.082152,15.742481 c 0.06433,-0.30752 -0.01846,-0.71236 0.219245,-0.95006"
       id="path3157" />
    <path
       style="fill:#67ae00;fill-opacity:1;stroke:#1b8800;stroke-width:0.264583px;stroke-linecap:butt;stroke-linejoin:miter;stroke-opacity:1"
       d="m 14.205174,13.696201 c 0.06901,-0.60379 -0.05287,-0.98272 -0.328867,-1.53471"
       id="path3155" />
    <path
       style="fill:#67ae00;fill-opacity:1;stroke:#1b8800;stroke-width:0.264583px;stroke-linecap:butt;stroke-linejoin:miter;stroke-opacity:1"
       d="m 11.720403,13.696201 c 0.185333,-0.44547 0.219891,-0.9326 0.365407,-1.38855 0.103162,-0.32324 0.243605,-0.63337 0.365408,-0.95006"
       id="path3153" />
    <path
       style="fill:#67ae00;fill-opacity:1;stroke:#1b8800;stroke-width:0.264583px;stroke-linecap:butt;stroke-linejoin:miter;stroke-opacity:1"
       d="m 12.889707,13.184631 c 0.06102,0.52649 -0.175495,1.09605 0.109622,1.57125"
       id="path3151" />
    <path
       style="fill:#67ae00;fill-opacity:1;stroke:#1b8800;stroke-width:0.264583px;stroke-linecap:butt;stroke-linejoin:miter;stroke-opacity:1"
       d="m 10.149149,13.805821 c -0.129328,0.41292 -0.2557848,0.80737 -0.2557848,1.24239"
       id="path3149" />
    <path
       style="fill:#67ae00;fill-opacity:1;stroke:#1b8800;stroke-width:0.264583px;stroke-linecap:butt;stroke-linejoin:miter;stroke-opacity:1"
       d="m 6.7874002,12.746141 c 0.05735,0.38381 -0.162351,0.86079 0.146163,1.1693"
       id="path3147" />
    <path
       style="fill:#67ae00;fill-opacity:1;stroke:#1b8800;stroke-width:0.264583px;stroke-linecap:butt;stroke-linejoin:miter;stroke-opacity:1"
       d="m 4.8507402,11.905701 c -0.07897,-0.4046 0,-0.75824 0,-1.1693"
       id="path3145" />
    <path
       style="fill:#67ae00;fill-opacity:1;stroke:#1b8800;stroke-width:0.264583px;stroke-linecap:butt;stroke-linejoin:miter;stroke-opacity:1"
       d="m 3.8641392,15.084751 c 0.08551,-0.55579 0.0014,-0.33174 0.182704,-0.69428"
       id="path3143" />
    <path
       style="fill:#67ae00;fill-opacity:1;stroke:#1b8800;stroke-width:0.264583px;stroke-linecap:butt;stroke-linejoin:miter;stroke-opacity:1"
       d="m 1.0139602,12.709601 c 0.24695,-0.43807 0.452198,-0.87882 0.621193,-1.35201"
       id="path3141" />
    <path
       style="fill:#67ae00;fill-opacity:1;stroke:#1b8800;stroke-width:0.264583px;stroke-linecap:butt;stroke-linejoin:miter;stroke-opacity:1"
       d="m 0.06390121,14.719341 c 0.319887,-0.23992 0.206198,-0.13312 0.365407,-0.29233"
       id="path3139" />
    <path
       style="fill:#67ae00;fill-opacity:1;stroke:#1b8800;stroke-width:0.264583px;stroke-linecap:butt;stroke-linejoin:miter;stroke-opacity:1"
       d="m 0.31968621,11.211431 c 0.192644,-0.50085 0.413872,-0.98583 0.584652,-1.49817"
       id="path3137" />
    <path
       style="fill:#67ae00;fill-opacity:1;stroke:#1b8800;stroke-width:0.264583px;stroke-linecap:butt;stroke-linejoin:miter;stroke-opacity:1"
       d="m 5.1796062,13.623121 c 0.118284,-0.51256 0.05823,-0.32087 0.146163,-0.58466"
       id="path3135" />
    <path
       style="fill:#67ae00;fill-opacity:1;stroke:#1b8800;stroke-width:0.264583px;stroke-linecap:butt;stroke-linejoin:miter;stroke-opacity:1"
       d="m 9.6010382,12.709601 c 0.116228,-0.46491 0.04224,-0.30374 0.146163,-0.51157"
       id="path3133" />
    <path
       style="fill:#67ae00;fill-opacity:1;stroke:#1b8800;stroke-width:0.264583px;stroke-linecap:butt;stroke-linejoin:miter;stroke-opacity:1"
       d="m 13.364737,10.224831 c 0.2462,-0.30392 0.277061,-0.71046 0.51157,-1.02314"
       id="path3131" />
    <path
       style="fill:#67ae00;fill-opacity:1;stroke:#1b8800;stroke-width:0.264583px;stroke-linecap:butt;stroke-linejoin:miter;stroke-opacity:1"
       d="m 12.597381,8.909361 c 0.157473,-0.35432 0.287372,-0.62733 0.401948,-1.02314 0.228726,-0.79015 -0.02682,-0.52129 0.182704,-0.73082"
       id="path3129" />
    <path
       style="fill:#67ae00;fill-opacity:1;stroke:#1b8800;stroke-width:0.264583px;stroke-linecap:butt;stroke-linejoin:miter;stroke-opacity:1"
       d="m 14.095552,6.972701 c 0.06065,-0.73622 0.178256,-1.48928 0.51157,-2.15591"
       id="path3127" />
    <path
       style="fill:#67ae00;fill-opacity:1;stroke:#1b8800;stroke-width:0.264583px;stroke-linecap:butt;stroke-linejoin:miter;stroke-opacity:1"
       d="m 13.108952,2.916681 c 0.02436,-0.0853 0.05674,-0.16864 0.07308,-0.25579 0.02032,-0.10841 3.17e-4,-0.22469 0.03654,-0.32887 0.273011,-0.54602 0.195496,-0.3307 0.292326,-0.62119"
       id="path3125" />
    <path
       style="fill:#67ae00;fill-opacity:1;stroke:#1b8800;stroke-width:0.264583px;stroke-linecap:butt;stroke-linejoin:miter;stroke-opacity:1"
       d="m 10.806883,6.936161 c 0.08577,-0.84603 1.023142,-1.45826 1.023142,-2.30207"
       id="path3123" />
    <path
       style="fill:#67ae00;fill-opacity:1;stroke:#1b8800;stroke-width:0.264583px;stroke-linecap:butt;stroke-linejoin:miter;stroke-opacity:1"
       d="m 10.989588,10.151741 c 0.108098,-0.50641 0.134289,-1.02497 0.219244,-1.53471 0.07643,-0.45856 0.07308,-0.14086 0.07308,-0.29232"
       id="path3121" />
    <path
       style="fill:#67ae00;fill-opacity:1;stroke:#1b8800;stroke-width:0.264583px;stroke-linecap:butt;stroke-linejoin:miter;stroke-opacity:1"
       d="m 6.5681552,10.663321 c 0.07935,-0.6348 -0.0086,-0.0346 0.255786,-1.13277 0.106223,-0.44124 0.156666,-1.25289 0.548111,-1.64433"
       id="path3119" />
    <path
       style="fill:#67ae00;fill-opacity:1;stroke:#1b8800;stroke-width:0.264583px;stroke-linecap:butt;stroke-linejoin:miter;stroke-opacity:1"
       d="m 8.1759482,10.480611 c 0.230998,-0.8658 0.364077,-1.7433 0.47503,-2.63093"
       id="path3117" />
    <path
       style="fill:#67ae00;fill-opacity:1;stroke:#1b8800;stroke-width:0.264583px;stroke-linecap:butt;stroke-linejoin:miter;stroke-opacity:1"
       d="m 2.9871612,12.161491 c -0.02436,-0.13399 -0.09744,-0.26797 -0.07308,-0.40195 0.130352,-0.71694 0.58226,-1.4808 1.169304,-1.90012"
       id="path3115" />
    <path
       style="fill:#67ae00;fill-opacity:1;stroke:#1b8800;stroke-width:0.264583px;stroke-linecap:butt;stroke-linejoin:miter;stroke-opacity:1"
       d="m 4.3026282,7.959301 c 0.367506,-0.42239 0.649412,-0.90753 0.986601,-1.35201 0.449203,-0.59213 0.270821,-0.24931 0.401948,-0.51157"
       id="path3113" />
    <path
       style="fill:#67ae00;fill-opacity:1;stroke:#1b8800;stroke-width:0.264583px;stroke-linecap:butt;stroke-linejoin:miter;stroke-opacity:1"
       d="m 1.8909392,6.753451 c 0.0306,-0.42419 -0.05865,-0.85667 0,-1.27892 0.02334,-0.16804 0.121802,-0.31669 0.182703,-0.47503"
       id="path3111" />
    <path
       style="fill:#67ae00;fill-opacity:1;stroke:#1b8800;stroke-width:0.264583px;stroke-linecap:butt;stroke-linejoin:miter;stroke-opacity:1"
       d="m 3.3525692,7.374651 c 0.112267,-0.36105 0.247112,-0.71925 0.47503,-1.02314"
       id="path3109" />
    <path
       style="fill:#67ae00;fill-opacity:1;stroke:#1b8800;stroke-width:0.264583px;stroke-linecap:butt;stroke-linejoin:miter;stroke-opacity:1"
       d="m 6.8970222,2.076241 c 0.50223,-0.8113 0.262311,-0.55464 0.584652,-0.87698"
       id="path3107" />
    <path
       style="fill:#67ae00;fill-opacity:1;stroke:#1b8800;stroke-width:0.264583px;stroke-linecap:butt;stroke-linejoin:miter;stroke-opacity:1"
       d="m 8.5778972,2.405101 c 0.210523,-0.43478 0.54163,-0.76087 0.876978,-1.09622"
       id="path3105" />
    <path
       style="fill:#67ae00;fill-opacity:1;stroke:#1b8800;stroke-width:0.264583px;stroke-linecap:butt;stroke-linejoin:miter;stroke-opacity:1"
       d="m 9.7106602,3.062841 c 0.3193308,-0.4169 0.5909578,-0.86421 0.9135188,-1.27893"
       id="path3103" />
    <path
       style="fill:#67ae00;fill-opacity:1;stroke:#1b8800;stroke-width:0.264583px;stroke-linecap:butt;stroke-linejoin:miter;stroke-opacity:1"
       d="m 8.5048152,5.328361 c 0.41069,-0.40006 0.838837,-0.74192 1.315467,-1.05968"
       id="path3101" />
    <path
       style="fill:#67ae00;fill-opacity:1;stroke:#1b8800;stroke-width:0.264583px;stroke-linecap:butt;stroke-linejoin:miter;stroke-opacity:1"
       d="m 6.6777782,4.451391 c 0.432035,-0.3771 0.740592,-1.24728 1.242385,-1.49817"
       id="path3099" />
    <path
       style="fill:#67ae00;fill-opacity:1;stroke:#1b8800;stroke-width:0.264583px;stroke-linecap:butt;stroke-linejoin:miter;stroke-opacity:1"
       d="m 5.3623102,3.830191 c 0.34999,-0.35559 0.452369,-0.89085 0.803897,-1.24238"
       id="path3097" />
    <path
       style="fill:#67ae00;fill-opacity:1;stroke:#1b8800;stroke-width:0.264583px;stroke-linecap:butt;stroke-linejoin:miter;stroke-opacity:1"
       d="m 3.3525692,4.341761 c 0.04872,-0.0365 0.111773,-0.0594 0.146163,-0.10962 0.533716,-0.78005 0.617938,-1.7494 1.169304,-2.52131"
       id="path3095" />
    <path
       style="fill:#67ae00;fill-opacity:1;stroke:#1b8800;stroke-width:0.264583px;stroke-linecap:butt;stroke-linejoin:miter;stroke-opacity:1"
       d="m 1.3428272,4.122521 c 0.02436,-0.0609 0.05618,-0.11933 0.07308,-0.1827 0.032,-0.12002 0.03014,-0.24886 0.07308,-0.36541 0.2174,-0.59009 0.7448,-1.08765 1.023141,-1.64434"
       id="path3093" />
  </g>
</svg>
