<?xml version="1.0" encoding="UTF-8" standalone="no"?>
<!-- Created with Inkscape (http://www.inkscape.org/) -->

<svg
   width="16.933334mm"
   height="16.933334mm"
   viewBox="0 0 16.933334 16.933334"
   version="1.1"
   id="svg5"
   inkscape:version="1.1.1 (3bf5ae0d25, 2021-09-20)"
   sodipodi:docname="wall.svg"
   inkscape:export-filename="C:\Users\filo\Projets\csc207\course-project-internet-explorers\src\main\resources\tiles\wall.png"
   inkscape:export-xdpi="95.999992"
   inkscape:export-ydpi="95.999992"
   xmlns:inkscape="http://www.inkscape.org/namespaces/inkscape"
   xmlns:sodipodi="http://sodipodi.sourceforge.net/DTD/sodipodi-0.dtd"
   xmlns="http://www.w3.org/2000/svg"
   xmlns:svg="http://www.w3.org/2000/svg">
  <sodipodi:namedview
     id="namedview7"
     pagecolor="#505050"
     bordercolor="#ffffff"
     borderopacity="1"
     inkscape:pageshadow="0"
     inkscape:pageopacity="0"
     inkscape:pagecheckerboard="1"
     inkscape:document-units="mm"
     showgrid="false"
     inkscape:zoom="10.24"
     inkscape:cx="25.927734"
     inkscape:cy="31.005859"
     inkscape:window-width="1920"
     inkscape:window-height="1013"
     inkscape:window-x="-9"
     inkscape:window-y="-9"
     inkscape:window-maximized="1"
     inkscape:current-layer="layer2" />
  <defs
     id="defs2" />
  <g
     inkscape:label="background"
     inkscape:groupmode="layer"
     id="layer1"
     transform="translate(-12.61529,-107.04975)"
     style="display:inline">
    <rect
       style="fill:#6e6f73;fill-opacity:1;stroke:#005b00;stroke-width:0;stroke-opacity:0.00271738"
       id="rect139"
       width="16.933332"
       height="16.933332"
       x="12.615291"
       y="107.04975"
       inkscape:label="rect139" />
  </g>
  <g
     inkscape:groupmode="layer"
     id="layer2"
     inkscape:label="lines">
    <path
       style="fill:none;stroke:#000000;stroke-width:0.264583px;stroke-linecap:butt;stroke-linejoin:miter;stroke-opacity:1"
       d="M 6.4178465e-7,1.2817383e-6 H 16.933332"
       id="path2833" />
    <path
       style="fill:none;stroke:#000000;stroke-width:0.264583px;stroke-linecap:butt;stroke-linejoin:miter;stroke-opacity:1"
       d="M 16.933332,1.2817383e-6 V 16.933336"
       id="path2835" />
    <path
       style="fill:none;stroke:#000000;stroke-width:0.264583px;stroke-linecap:butt;stroke-linejoin:miter;stroke-opacity:1"
       d="M 16.933332,16.933336 H 6.4178465e-7"
       id="path2837" />
    <path
       style="fill:none;stroke:#000000;stroke-width:0.264583px;stroke-linecap:butt;stroke-linejoin:miter;stroke-opacity:1"
       d="M 6.4178465e-7,1.2817383e-6 V 16.933336"
       id="path2839" />
    <path
       style="fill:none;stroke:#000000;stroke-width:0.264583px;stroke-linecap:butt;stroke-linejoin:miter;stroke-opacity:1"
       d="M 0.15502929,2.997233 16.79484,2.9713949"
       id="path2845" />
    <path
       style="fill:none;stroke:#000000;stroke-width:0.264583px;stroke-linecap:butt;stroke-linejoin:miter;stroke-opacity:1"
       d="M 0.20670573,5.6844075 16.898193,5.8652751"
       id="path2847" />
    <path
       style="fill:none;stroke:#000000;stroke-width:0.264583px;stroke-linecap:butt;stroke-linejoin:miter;stroke-opacity:1"
       d="M 0.12919108,8.7849934 16.846517,8.4490966"
       id="path2851" />
    <path
       style="fill:none;stroke:#000000;stroke-width:0.264583px;stroke-linecap:butt;stroke-linejoin:miter;stroke-opacity:1"
       d="M 0.12919108,10.826212 16.846517,11.756388"
       id="path2853" />
    <path
       style="fill:none;stroke:#000000;stroke-width:0.264583px;stroke-linecap:butt;stroke-linejoin:miter;stroke-opacity:1"
       d="M 0.28422036,14.288533 16.717326,14.107666"
       id="path2855" />
    <path
       style="fill:none;stroke:#000000;stroke-width:0.264583px;stroke-linecap:butt;stroke-linejoin:miter;stroke-opacity:1"
       d="m 5.0642903,0.23254394 c 0.029757,0.30162329 -0.092306,0.58341779 -0.129191,0.87849936 -0.025728,0.2058205 -0.041811,0.4129297 -0.051677,0.6201171 -0.00196,0.041346 -0.033541,0.3463287 0,0.4134115 0.049368,0.098736 0.2842205,0.3627175 0.2842205,0.4392497"
       id="path2857" />
    <path
       style="fill:none;stroke:#000000;stroke-width:0.264583px;stroke-linecap:butt;stroke-linejoin:miter;stroke-opacity:1"
       d="M 9.6634926,2.868042 C 9.9122313,2.3031073 9.8841453,1.6812457 9.9735512,1.0852051 9.9982397,0.92061637 10.051066,0.76197329 10.051066,0.59427898"
       id="path2859" />
    <path
       style="fill:none;stroke:#000000;stroke-width:0.264583px;stroke-linecap:butt;stroke-linejoin:miter;stroke-opacity:1"
       d="m 13.771769,2.6871744 c 0,-0.6222477 -0.01024,-0.4444922 0.129191,-1.4727783 0.01544,-0.1138662 0.06126,-0.22214339 0.07752,-0.33589676 0.01077,-0.0753945 0.01541,-0.38228069 0.07751,-0.46508789 0.01155,-0.015407 0.04306,-0.008613 0.05168,-0.0258382 0.03111,-0.0622154 -0.0011,-0.10228328 0.05168,-0.15502928"
       id="path2861" />
    <path
       style="fill:none;stroke:#000000;stroke-width:0.264583px;stroke-linecap:butt;stroke-linejoin:miter;stroke-opacity:1"
       d="m 2.5579834,3.1781006 c 0.034451,0.09474 0.071474,0.1885839 0.1033529,0.2842205 0.1633024,0.4899072 0.324549,0.9485031 0.2842204,1.4727782 -0.00481,0.062517 -0.03938,0.1193834 -0.051677,0.1808673 -0.1185238,0.5926196 -0.020979,0.1176991 -0.051676,0.5167643 -0.00371,0.048173 -0.040452,0.1969633 -0.025839,0.2067057 0.021497,0.014333 0.051677,0 0.077515,0"
       id="path2863" />
    <path
       style="fill:none;stroke:#000000;stroke-width:0.264583px;stroke-linecap:butt;stroke-linejoin:miter;stroke-opacity:1"
       d="m 7.7773029,3.5398355 c 0,0.1894803 0,0.3789606 0,0.5684409 0,0.5512152 0,1.1024303 0,1.6536458 0,0.1119656 0,0.2239312 0,0.3358967 0,0.086127 0,0.1722549 0,0.2583821 0,0.017224 -0.014332,0.042122 0,0.051676 0.021497,0.014333 0.051677,0 0.077515,0"
       id="path2865" />
    <path
       style="fill:none;stroke:#000000;stroke-width:0.264583px;stroke-linecap:butt;stroke-linejoin:miter;stroke-opacity:1"
       d="m 11.653035,3.2039388 c 0.05302,0.8760602 -0.310859,1.7350385 -0.258382,2.6096597 0.02421,0.4035668 0.03287,0.3875733 0.206706,0.3875733"
       id="path2867" />
    <path
       style="fill:none;stroke:#000000;stroke-width:0.264583px;stroke-linecap:butt;stroke-linejoin:miter;stroke-opacity:1"
       d="m 16.123047,3.3331298 c -0.05168,0.1291913 -0.123512,0.2520468 -0.15503,0.3875733 -0.176404,0.75854 -0.155029,1.5530412 -0.155029,2.3254393"
       id="path2869" />
    <path
       style="fill:none;stroke:#000000;stroke-width:0.264583px;stroke-linecap:butt;stroke-linejoin:miter;stroke-opacity:1"
       d="m 4.676717,8.5266111 c 0.1414727,-2.357878 0.051677,-0.2628104 0.051677,-2.402954 0,-0.2240968 -0.01546,-0.451535 0.025839,-0.6717935 C 4.7913887,5.2536978 4.8920365,5.072903 4.9609385,4.8834227"
       id="path2871" />
    <path
       style="fill:none;stroke:#000000;stroke-width:0.264583px;stroke-linecap:butt;stroke-linejoin:miter;stroke-opacity:1"
       d="m 9.7151691,5.8135985 c -0.00861,0.051677 -0.021397,0.1028287 -0.025839,0.1550294 -0.030025,0.3527909 -0.058404,0.7058165 -0.077515,1.0593668 -0.015348,0.2839363 -0.032156,0.5683806 -0.025839,0.8526611 0.00254,0.1148799 -0.036506,0.3216441 0.077514,0.3358967 0.059824,0.00748 0.1205785,0 0.1808675,0"
       id="path2873" />
    <path
       style="fill:none;stroke:#000000;stroke-width:0.264583px;stroke-linecap:butt;stroke-linejoin:miter;stroke-opacity:1"
       d="m 13.771769,6.5370685 c 0.189769,0.7590764 0.129191,0.3392083 0.129191,1.2660725 0,0.7410863 0.01949,0.4315214 -0.02584,0.9301758"
       id="path2875" />
    <path
       style="fill:none;stroke:#000000;stroke-width:0.264583px;stroke-linecap:butt;stroke-linejoin:miter;stroke-opacity:1"
       d="m 2.6871744,9.2500811 c -0.070768,0.2123057 -0.3365233,0.8578059 -0.2583821,1.1368819 0.023909,0.08539 0.1550293,0.08613 0.232544,0.129191"
       id="path2877" />
    <path
       style="fill:none;stroke:#000000;stroke-width:0.264583px;stroke-linecap:butt;stroke-linejoin:miter;stroke-opacity:1"
       d="M 7.67395,9.0433754 C 7.600375,9.5584035 7.5003601,10.068282 7.544759,10.593668 c 0.028737,0.340053 0.1205783,0.671794 0.1808676,1.007691"
       id="path2879" />
    <path
       style="fill:none;stroke:#000000;stroke-width:0.264583px;stroke-linecap:butt;stroke-linejoin:miter;stroke-opacity:1"
       d="m 11.885579,9.0692138 c 0.08348,0.5386144 0.07765,1.0865902 0.129191,1.6278072 0.01448,0.152039 -0.05032,0.880497 0.310059,1.007691 0.07488,0.02643 0.155029,-0.03445 0.232544,-0.05168"
       id="path2881" />
    <path
       style="fill:none;stroke:#000000;stroke-width:0.264583px;stroke-linecap:butt;stroke-linejoin:miter;stroke-opacity:1"
       d="m 16.278076,9.1467283 c -0.210298,0.7345412 -0.07751,1.4990497 -0.07751,2.2479247"
       id="path2883" />
    <path
       style="fill:none;stroke:#000000;stroke-width:0.264583px;stroke-linecap:butt;stroke-linejoin:miter;stroke-opacity:1"
       d="M 5.3226723,11.498006 C 4.8217253,12.857719 5.5855187,10.74867 4.8575846,12.970784 4.7099407,13.421486 4.616683,13.519447 4.5733641,13.952637"
       id="path2885" />
    <path
       style="fill:none;stroke:#000000;stroke-width:0.264583px;stroke-linecap:butt;stroke-linejoin:miter;stroke-opacity:1"
       d="m 10.852051,12.221476 c 0,1.202404 -0.01338,0.26584 0.05168,1.653646 0.0113,0.241046 0.01281,0.482511 0.02584,0.72347 0.0042,0.07788 0.0012,0.158555 0.02584,0.232544 0.0054,0.01634 0.03445,0 0.05168,0"
       id="path2887" />
    <path
       style="fill:none;stroke:#000000;stroke-width:0.264583px;stroke-linecap:butt;stroke-linejoin:miter;stroke-opacity:1"
       d="m 15.3479,12.01477 c -0.05004,0.390385 0.03737,0.927988 -0.310059,1.188558"
       id="path2889" />
    <path
       style="fill:none;stroke:#000000;stroke-width:0.264583px;stroke-linecap:butt;stroke-linejoin:miter;stroke-opacity:1"
       d="m 2.4287923,14.960327 c -0.2178631,0.435726 -0.2831711,0.539454 -0.4650879,1.085205 -0.021958,0.06587 -0.054572,0.143492 -0.025838,0.206706 0.031749,0.06985 0.3656729,0.124324 0.3875732,0.129191"
       id="path2891" />
    <path
       style="fill:none;stroke:#000000;stroke-width:0.264583px;stroke-linecap:butt;stroke-linejoin:miter;stroke-opacity:1"
       d="m 7.67395,14.443563 c -0.00383,0.78399 0.00243,1.567415 0.025839,2.351277 0.00795,0.266144 -0.034323,0.232544 0.1291913,0.232544"
       id="path2893" />
    <path
       style="fill:none;stroke:#000000;stroke-width:0.264583px;stroke-linecap:butt;stroke-linejoin:miter;stroke-opacity:1"
       d="m 14.546916,14.546916 c -0.03232,0.594002 -0.02584,1.18843 -0.02584,1.782836"
       id="path2895" />
  </g>
</svg>
